<mxfile host="app.diagrams.net" modified="2024-05-08T23:55:31.808Z" agent="Mozilla/5.0 (Windows NT 10.0; Win64; x64) AppleWebKit/537.36 (KHTML, like Gecko) Chrome/124.0.0.0 Safari/537.36" etag="Vh85An0zyMLzQPEb8LtS" version="24.3.1" type="github">
  <diagram name="Basic Layout" id="Cj6hGhs_dTbEUp0NIi7K">
    <mxGraphModel dx="2465" dy="815" grid="1" gridSize="10" guides="1" tooltips="1" connect="1" arrows="1" fold="1" page="1" pageScale="1" pageWidth="850" pageHeight="1100" math="0" shadow="0">
      <root>
        <mxCell id="0" />
        <mxCell id="1" parent="0" />
        <mxCell id="2Rs67Pdha-q2LzGLI3ue-14" style="edgeStyle=orthogonalEdgeStyle;rounded=0;orthogonalLoop=1;jettySize=auto;html=1;" parent="1" source="2Rs67Pdha-q2LzGLI3ue-1" target="2Rs67Pdha-q2LzGLI3ue-2" edge="1">
          <mxGeometry relative="1" as="geometry" />
        </mxCell>
        <mxCell id="2Rs67Pdha-q2LzGLI3ue-1" value="Create a tasklist" style="rounded=0;whiteSpace=wrap;html=1;" parent="1" vertex="1">
          <mxGeometry x="10" y="180" width="120" height="60" as="geometry" />
        </mxCell>
        <mxCell id="2Rs67Pdha-q2LzGLI3ue-5" value="" style="edgeStyle=orthogonalEdgeStyle;rounded=0;orthogonalLoop=1;jettySize=auto;html=1;" parent="1" source="2Rs67Pdha-q2LzGLI3ue-2" target="2Rs67Pdha-q2LzGLI3ue-4" edge="1">
          <mxGeometry relative="1" as="geometry" />
        </mxCell>
        <mxCell id="2Rs67Pdha-q2LzGLI3ue-2" value="Add fields" style="whiteSpace=wrap;html=1;rounded=0;" parent="1" vertex="1">
          <mxGeometry x="300" y="180" width="120" height="60" as="geometry" />
        </mxCell>
        <mxCell id="2Rs67Pdha-q2LzGLI3ue-7" value="" style="edgeStyle=orthogonalEdgeStyle;rounded=0;orthogonalLoop=1;jettySize=auto;html=1;" parent="1" source="2Rs67Pdha-q2LzGLI3ue-4" target="2Rs67Pdha-q2LzGLI3ue-6" edge="1">
          <mxGeometry relative="1" as="geometry" />
        </mxCell>
        <mxCell id="2Rs67Pdha-q2LzGLI3ue-4" value="Create a automation flow" style="whiteSpace=wrap;html=1;rounded=0;" parent="1" vertex="1">
          <mxGeometry x="600" y="180" width="120" height="60" as="geometry" />
        </mxCell>
        <mxCell id="2Rs67Pdha-q2LzGLI3ue-9" value="" style="edgeStyle=orthogonalEdgeStyle;rounded=0;orthogonalLoop=1;jettySize=auto;html=1;" parent="1" source="2Rs67Pdha-q2LzGLI3ue-6" target="2Rs67Pdha-q2LzGLI3ue-8" edge="1">
          <mxGeometry relative="1" as="geometry" />
        </mxCell>
        <mxCell id="2Rs67Pdha-q2LzGLI3ue-6" value="Test the flow" style="whiteSpace=wrap;html=1;rounded=0;" parent="1" vertex="1">
          <mxGeometry x="800" y="180" width="120" height="60" as="geometry" />
        </mxCell>
        <mxCell id="2Rs67Pdha-q2LzGLI3ue-8" value="Run the flow" style="whiteSpace=wrap;html=1;rounded=0;" parent="1" vertex="1">
          <mxGeometry x="1000" y="180" width="120" height="60" as="geometry" />
        </mxCell>
        <mxCell id="2Rs67Pdha-q2LzGLI3ue-17" value="" style="edgeStyle=orthogonalEdgeStyle;rounded=0;orthogonalLoop=1;jettySize=auto;html=1;" parent="1" source="2Rs67Pdha-q2LzGLI3ue-15" target="2Rs67Pdha-q2LzGLI3ue-16" edge="1">
          <mxGeometry relative="1" as="geometry" />
        </mxCell>
        <mxCell id="2Rs67Pdha-q2LzGLI3ue-15" value="Import a tasklist" style="rounded=1;whiteSpace=wrap;html=1;" parent="1" vertex="1">
          <mxGeometry x="-160" y="20" width="120" height="60" as="geometry" />
        </mxCell>
        <mxCell id="2Rs67Pdha-q2LzGLI3ue-19" value="" style="edgeStyle=orthogonalEdgeStyle;rounded=0;orthogonalLoop=1;jettySize=auto;html=1;" parent="1" source="2Rs67Pdha-q2LzGLI3ue-16" target="2Rs67Pdha-q2LzGLI3ue-18" edge="1">
          <mxGeometry relative="1" as="geometry" />
        </mxCell>
        <mxCell id="2Rs67Pdha-q2LzGLI3ue-16" value="Select where to import from&amp;nbsp;" style="whiteSpace=wrap;html=1;rounded=1;" parent="1" vertex="1">
          <mxGeometry x="70" y="20" width="120" height="60" as="geometry" />
        </mxCell>
        <mxCell id="2Rs67Pdha-q2LzGLI3ue-21" value="" style="edgeStyle=orthogonalEdgeStyle;rounded=0;orthogonalLoop=1;jettySize=auto;html=1;" parent="1" source="2Rs67Pdha-q2LzGLI3ue-18" target="2Rs67Pdha-q2LzGLI3ue-20" edge="1">
          <mxGeometry relative="1" as="geometry" />
        </mxCell>
        <mxCell id="2Rs67Pdha-q2LzGLI3ue-18" value="Choose autosync if available" style="whiteSpace=wrap;html=1;rounded=1;" parent="1" vertex="1">
          <mxGeometry x="270" y="20" width="120" height="60" as="geometry" />
        </mxCell>
        <mxCell id="2Rs67Pdha-q2LzGLI3ue-23" value="" style="edgeStyle=orthogonalEdgeStyle;rounded=0;orthogonalLoop=1;jettySize=auto;html=1;" parent="1" source="2Rs67Pdha-q2LzGLI3ue-20" target="2Rs67Pdha-q2LzGLI3ue-22" edge="1">
          <mxGeometry relative="1" as="geometry" />
        </mxCell>
        <mxCell id="2Rs67Pdha-q2LzGLI3ue-20" value="Auto add tables" style="whiteSpace=wrap;html=1;rounded=1;" parent="1" vertex="1">
          <mxGeometry x="470" y="20" width="120" height="60" as="geometry" />
        </mxCell>
        <mxCell id="2Rs67Pdha-q2LzGLI3ue-25" value="" style="edgeStyle=orthogonalEdgeStyle;rounded=0;orthogonalLoop=1;jettySize=auto;html=1;" parent="1" source="2Rs67Pdha-q2LzGLI3ue-22" target="2Rs67Pdha-q2LzGLI3ue-24" edge="1">
          <mxGeometry relative="1" as="geometry" />
        </mxCell>
        <mxCell id="2Rs67Pdha-q2LzGLI3ue-22" value="Manually add table&amp;nbsp;" style="whiteSpace=wrap;html=1;rounded=1;" parent="1" vertex="1">
          <mxGeometry x="670" y="20" width="120" height="60" as="geometry" />
        </mxCell>
        <mxCell id="2Rs67Pdha-q2LzGLI3ue-27" value="" style="edgeStyle=orthogonalEdgeStyle;rounded=0;orthogonalLoop=1;jettySize=auto;html=1;" parent="1" source="2Rs67Pdha-q2LzGLI3ue-24" target="2Rs67Pdha-q2LzGLI3ue-26" edge="1">
          <mxGeometry relative="1" as="geometry" />
        </mxCell>
        <mxCell id="2Rs67Pdha-q2LzGLI3ue-24" value="Map tables manually" style="whiteSpace=wrap;html=1;rounded=1;" parent="1" vertex="1">
          <mxGeometry x="870" y="20" width="120" height="60" as="geometry" />
        </mxCell>
        <mxCell id="2Rs67Pdha-q2LzGLI3ue-28" style="edgeStyle=orthogonalEdgeStyle;rounded=0;orthogonalLoop=1;jettySize=auto;html=1;" parent="1" source="2Rs67Pdha-q2LzGLI3ue-26" target="2Rs67Pdha-q2LzGLI3ue-4" edge="1">
          <mxGeometry relative="1" as="geometry">
            <Array as="points">
              <mxPoint x="1120" y="140" />
              <mxPoint x="660" y="140" />
            </Array>
          </mxGeometry>
        </mxCell>
        <mxCell id="2Rs67Pdha-q2LzGLI3ue-26" value="Run test import&amp;nbsp;" style="whiteSpace=wrap;html=1;rounded=1;" parent="1" vertex="1">
          <mxGeometry x="1070" y="20" width="120" height="60" as="geometry" />
        </mxCell>
      </root>
    </mxGraphModel>
  </diagram>
</mxfile>
